<svg width="102" height="25" viewBox="0 0 102 25" fill="none" xmlns="http://www.w3.org/2000/svg">
<g clip-path="url(#clip0)">
<path d="M32.64 17.76V6.41999H30.18L30.06 6.84999L29.9599 7.23C29.1249 6.66449 28.1384 6.3647 27.13 6.36999C25.7604 6.31742 24.4164 6.75155 23.3364 7.59542C22.2564 8.43929 21.5101 9.63835 21.2299 10.98C21.102 11.5552 21.0284 12.1411 21.01 12.73C20.9418 13.6665 21.0742 14.6067 21.3984 15.4879C21.7226 16.3691 22.2312 17.171 22.89 17.84C23.5259 18.3281 24.2549 18.681 25.0322 18.877C25.8095 19.0731 26.6187 19.1081 27.41 18.98C27.8669 18.9351 28.3095 18.7964 28.7104 18.5728C29.1113 18.3491 29.4618 18.0452 29.7399 17.68C29.8599 19.54 29.7899 20.58 28.5899 21.4C26.6899 22.7 23.78 21.8 21.91 21.01L21.3599 22.88C23.2651 23.9556 25.4498 24.4329 27.63 24.25C33.1 23.29 32.64 18.93 32.64 17.76ZM29.64 15.21C29.4791 15.6153 29.205 15.9656 28.8503 16.2192C28.4956 16.4728 28.0755 16.6189 27.64 16.64C26.9073 16.6938 26.1812 16.4694 25.6066 16.0116C25.0321 15.5537 24.6512 14.8962 24.54 14.17C24.3101 13.1393 24.3101 12.0707 24.54 11.04C24.615 10.6174 24.776 10.2147 25.0133 9.85695C25.2505 9.49923 25.5588 9.19412 25.9189 8.96059C26.279 8.72706 26.6834 8.5701 27.1068 8.49947C27.5301 8.42883 27.9635 8.44603 28.38 8.54999C28.8242 8.63224 29.2464 8.80591 29.62 9.05999L29.64 15.21Z" fill="#0A0B0B"/>
<path d="M10 7.46999C9.63648 7.11805 9.20535 6.84354 8.73267 6.66306C8.25998 6.48258 7.75557 6.39989 7.25 6.41999C6.41546 6.39898 5.59286 6.62135 4.88257 7.05996C4.17228 7.49856 3.60501 8.13444 3.25 8.88999V0.0499878C2.16398 0.114906 1.0862 0.278923 0.0300293 0.539989V18.66H3.25V10.99C3.87 9.37999 4.77998 8.57999 5.97998 8.57999C6.23762 8.56607 6.49519 8.60801 6.73511 8.70294C6.97502 8.79787 7.19163 8.94355 7.37 9.12999C7.74343 9.60686 7.92532 10.206 7.88 10.81V18.66H11.1V10.45C11.1298 9.90448 11.0477 9.35864 10.8585 8.84612C10.6693 8.33359 10.3771 7.86525 10 7.46999Z" fill="#0A0B0B"/>
<path d="M17.73 1.71001C17.5518 1.52482 17.3373 1.37856 17.0997 1.28046C16.8622 1.18235 16.6069 1.13453 16.35 1.14001C16.0934 1.1369 15.8389 1.18581 15.6017 1.28377C15.3645 1.38174 15.1496 1.52673 14.97 1.71001C14.7839 1.88805 14.6365 2.10241 14.5367 2.33979C14.437 2.57718 14.387 2.83253 14.39 3.09001C14.3921 3.40949 14.4725 3.72357 14.6244 4.00464C14.7763 4.28571 14.995 4.52516 15.2611 4.70192C15.5272 4.87869 15.8327 4.98736 16.1506 5.01838C16.4686 5.0494 16.7893 5.00182 17.0846 4.87982C17.3799 4.75782 17.6407 4.56514 17.844 4.31873C18.0473 4.07231 18.187 3.77971 18.2507 3.46665C18.3145 3.15359 18.3004 2.82967 18.2096 2.52336C18.1188 2.21705 17.954 1.93775 17.73 1.71001ZM14.73 7.06001V18.66H17.9401V6.55001C16.8684 6.63704 15.8051 6.80756 14.76 7.06001H14.73Z" fill="#0A0B0B"/>
<path d="M46.14 7.46999C45.7765 7.11805 45.3454 6.84354 44.8727 6.66306C44.4 6.48258 43.8956 6.39989 43.39 6.41999C42.5555 6.39898 41.7329 6.62135 41.0226 7.05996C40.3123 7.49856 39.745 8.13444 39.39 8.88999V0.0499878C38.304 0.114906 37.2262 0.278923 36.17 0.539989V18.66H39.38V10.99C40 9.37999 40.91 8.57999 42.11 8.57999C42.3676 8.56673 42.6249 8.60898 42.8647 8.70387C43.1046 8.79876 43.3212 8.94408 43.5 9.12999C43.8699 9.60828 44.0481 10.2073 44 10.81V18.66H47.23V10.45C47.2612 9.90519 47.1806 9.35977 46.9932 8.84728C46.8057 8.3348 46.5154 7.86608 46.14 7.46999Z" fill="#0A0B0B"/>
<path d="M60.75 7.46999C60.384 7.11872 59.951 6.84472 59.4768 6.66433C59.0026 6.48394 58.497 6.40084 57.99 6.41999C57.1458 6.40194 56.3152 6.63455 55.6033 7.08844C54.8913 7.54232 54.3299 8.19709 53.99 8.96999C53.9498 8.15755 53.8529 7.34892 53.7 6.54999C52.721 6.64604 51.7514 6.81992 50.8 7.06999V18.66H54.02V10.99C54.64 9.37999 55.54 8.57999 56.74 8.57999C56.9991 8.56594 57.2583 8.60778 57.4999 8.70268C57.7414 8.79757 57.9597 8.94331 58.14 9.13C58.5056 9.61046 58.6834 10.2078 58.64 10.81V18.66H61.86V10.45C61.8885 9.90378 61.8048 9.35751 61.6139 8.84495C61.423 8.33239 61.1289 7.86443 60.75 7.46999Z" fill="#0A0B0B"/>
<path d="M65.22 0.549999V18.66H68.4401V0C67.3531 0.0921971 66.2759 0.276186 65.22 0.549999Z" fill="#0A0B0B"/>
<path d="M82.18 8.06C81.1 6.94 79.7999 6.43 77.4799 6.42C75.1599 6.41 73.85 6.94 72.78 8.06C72.2072 8.67797 71.7671 9.40671 71.4868 10.2013C71.2064 10.9959 71.0918 11.8394 71.15 12.68C71.0918 13.5206 71.2064 14.3641 71.4868 15.1587C71.7671 15.9533 72.2072 16.682 72.78 17.3C73.85 18.42 75.1499 18.93 77.4799 18.94C79.8099 18.95 81.1 18.42 82.18 17.3C82.749 16.6799 83.1859 15.9506 83.4644 15.1564C83.7429 14.3622 83.8571 13.5197 83.8 12.68C83.8571 11.8403 83.7429 10.9978 83.4644 10.2036C83.1859 9.40942 82.749 8.68012 82.18 8.06ZM77.4799 17.45C75.4799 17.38 74.6699 15.79 74.5999 12.68C74.5299 9.57 75.4499 7.97 77.4799 7.91C79.5099 7.85 80.2899 9.57 80.3599 12.68C80.4299 15.79 79.4999 17.38 77.4799 17.45Z" fill="#0A0B0B"/>
<path d="M98.78 6.48999L96.24 14.54L93.97 7.68999H93.14H92.31L90.04 14.54L87.49 6.48999H84.47L88.53 18.58H90.92L93.14 11.57L95.36 18.58H97.75L101.81 6.48999H98.78Z" fill="#0A0B0B"/>
</g>
<defs>
<clipPath id="clip0">
<rect width="101.81" height="24.32" fill="white"/>
</clipPath>
</defs>
</svg>
