<svg width="378" height="270" viewBox="0 0 378 270" fill="none" xmlns="http://www.w3.org/2000/svg">
<g clip-path="url(#clip0)">
<path d="M352.415 18.8854C353.743 17.7342 354.958 16.7172 356.138 15.6579C358.124 13.871 360.102 12.056 362.074 10.248C365.126 7.42295 368.157 4.59794 371.259 1.86474C372.04 1.18524 372.922 0.632356 373.874 0.226245C374.948 -0.232818 375.336 -0.0068178 375.993 0.932497C376.912 2.38176 377.402 4.06147 377.407 5.77738C377.675 11.6816 377.986 17.5859 377.965 23.4902C377.965 26.3905 377.965 29.2932 377.965 32.1983C377.965 35.5318 377.689 38.8723 377.534 42.2059C377.456 43.9362 377.385 45.6735 377.315 47.4321C376.311 47.5451 375.901 46.9448 376.092 46.5352C376.693 45.4475 375.937 44.3811 376.325 43.244C376.679 42.2341 376.248 40.9699 376.212 39.8117C376.142 37.5728 376.099 35.334 376.057 33.0952C375.979 29.4509 376.347 25.8349 376.53 22.1977C376.714 18.5605 376.368 14.9163 376.234 11.272C376.234 11.1237 376.078 10.9754 375.866 10.5658C375.641 11.0111 375.481 11.4869 375.393 11.9783C375.393 14.203 374.573 16.2511 374.064 18.3345C373.606 20.1486 373.047 21.9358 372.39 23.6879C371.245 26.8237 370.072 29.9453 368.8 33.0316C368.094 34.7055 367.211 36.2875 366.412 37.9189C366.144 38.4557 365.882 39.0065 365.642 39.5574C365.355 40.3375 364.924 41.0564 364.37 41.6762C363.694 42.5343 363.116 43.4653 362.646 44.4517C361.014 47.1496 359.389 49.8616 357.7 52.5454C357.38 52.9534 357.004 53.3147 356.584 53.6189C356.223 53.9367 355.736 54.1768 355.502 54.5653C354.874 55.5893 354.605 57.0089 353.729 57.6586C352.828 58.3516 352.16 59.3026 351.814 60.3848C351.724 60.6754 351.588 60.9497 351.411 61.197C350.465 62.2493 349.468 63.2522 348.543 64.3186C348.116 64.833 347.757 65.4004 347.476 66.0065C346.901 67.1958 346.033 68.2192 344.953 68.9799C343.642 70.0712 342.472 71.3214 341.47 72.7018C340.558 73.8177 339.809 75.0607 338.968 76.2331C338.792 76.4732 338.573 76.7839 338.318 76.8546C337.068 77.1936 336.531 78.2247 335.902 79.1923C335.658 79.6091 335.35 79.9855 334.99 80.3081C332.115 82.6529 329.705 85.4779 326.978 87.971C324.25 90.464 321.509 93.176 318.619 95.5914C312.323 100.86 305.9 105.959 298.524 109.716C294.372 111.724 290.119 113.518 285.784 115.091C282.381 116.439 278.819 117.345 275.185 117.789C272.23 118.159 269.254 118.336 266.275 118.319C262.148 118.219 258.042 117.677 254.03 116.701C250.434 115.861 246.922 114.646 243.389 113.558C242.054 113.149 240.761 112.626 239.446 112.146C236.156 110.965 233.11 109.191 230.459 106.913C228.671 105.408 226.806 103.989 224.997 102.513C224.629 102.209 224.368 101.771 224.022 101.432C223.075 100.5 222.086 99.6029 221.153 98.6566C220.008 97.4912 218.906 96.2906 217.79 95.1253C217.634 94.9629 217.465 94.8216 216.956 94.3484C217.147 102.463 217.747 110.168 217.14 117.916C216.504 125.753 215.347 133.539 213.677 141.222C212.06 148.85 209.759 156.317 206.802 163.533C206.843 163.196 206.909 162.863 207 162.537C209.967 154.026 212.233 145.286 213.776 136.406C215.531 127.309 216.387 118.062 216.334 108.798C216.278 104.963 215.946 101.143 215.734 97.3147C215.642 96.3475 215.599 95.3764 215.606 94.4049C215.769 91.3327 214.017 89.2563 211.96 87.3424C211.461 86.9186 211.088 86.3668 210.879 85.7463C210.591 84.885 210.129 84.0918 209.523 83.4156C207.269 81.0073 206.569 77.7656 204.753 75.0889C204.476 74.6153 204.294 74.0924 204.216 73.5493C203.375 69.8132 202.506 66.0772 201.757 62.327C201.514 60.8844 201.384 59.4251 201.369 57.9623C201.305 56.4439 201.369 54.9254 201.369 53.3999C201.328 53.0353 201.391 52.6667 201.55 52.336C201.708 52.0052 201.957 51.7254 202.266 51.5284C202.561 51.36 202.905 51.2989 203.24 51.3556C203.575 51.4122 203.88 51.5831 204.103 51.8391C204.932 52.5274 205.72 53.2631 206.463 54.0426C207.267 54.8644 208.02 55.7348 208.717 56.6487C209.69 57.8888 210.566 59.2016 211.339 60.5755C212.339 62.4542 213.206 64.4012 213.932 66.402C214.498 68.0703 214.923 69.7831 215.204 71.5224C216.122 76.5579 216.207 81.6641 216.454 86.7562C216.588 88.9485 217.486 91.0248 218.991 92.6252C221.102 94.9541 223.348 97.1567 225.718 99.2215C228.982 102.202 232.176 105.316 236.111 107.464C238.011 108.633 239.989 109.669 242.032 110.564C246.039 112.082 249.868 114.095 254.115 114.985C258.253 115.994 262.466 116.66 266.713 116.977C271.776 117.156 276.833 116.495 281.679 115.02C286.599 113.638 291.39 111.828 295.994 109.611C299.326 107.98 302.516 106.076 305.533 103.918C311.029 100.082 316.295 95.9268 321.304 91.474C322.717 90.1674 324.13 88.8255 325.543 87.4554C329.564 83.4721 333.641 79.5383 337.555 75.4491C340.311 72.5323 342.904 69.446 345.377 66.2678C348.74 61.9691 352 57.5904 355.156 53.1316C357.983 49.1695 360.767 45.1721 363.296 41.0193C366.229 36.1175 368.71 30.9595 370.708 25.6089C372.793 20.4811 374.3 15.1372 375.202 9.6759C375.499 7.63483 375.909 5.65025 375.456 3.588C375.061 1.75175 374.043 1.215 372.489 2.232C371.208 3.05188 370 3.98051 368.878 5.00757C366.525 7.21108 364.285 9.52758 361.968 11.7664C360.406 13.2848 358.781 14.7397 357.205 16.2582C356.697 16.7525 356.28 17.3528 355.792 17.8825C355.236 18.5184 354.646 19.1243 354.026 19.6976C353.708 19.966 353.651 19.9024 352.415 18.8854ZM203.079 53.294C202.575 54.3984 202.417 55.6295 202.626 56.8253C202.817 58.3225 203.05 59.8198 203.39 61.2888C204.131 64.5234 204.739 67.8075 205.792 70.9432C206.59 73.3304 207.912 75.5339 209.12 77.7727C209.763 78.9874 210.639 80.0821 211.324 81.3039C212.165 82.7659 212.9 84.2985 213.734 85.7745C213.903 86.0782 214.299 86.2618 214.751 86.6361C214.751 85.2731 214.843 84.1855 214.751 83.1049C214.469 80.2093 214.045 77.3348 213.783 74.4321C213.517 72.0879 213.044 69.7718 212.37 67.5108C210.957 62.2281 207.636 58.1742 204.209 54.1556C203.862 53.832 203.483 53.5434 203.079 53.294Z" fill="black"/>
<path d="M168.004 225.012C166.315 226.58 164.74 228.296 162.917 229.694C157.214 234.08 151.449 238.374 145.655 242.64C140.089 246.705 134.251 250.384 128.181 253.65C124.987 255.388 121.638 256.871 118.289 258.312C115.463 259.533 112.53 260.614 109.598 261.61C107.245 262.415 104.828 263.065 102.405 263.651C99.2818 264.407 96.1234 265.063 92.9721 265.692C90.5838 266.163 88.1885 266.594 85.7861 266.984C83.3837 267.375 80.9767 267.707 78.5648 267.98C71.7393 268.764 64.8996 269.449 58.0245 269.816C52.4926 270.132 46.9449 270.038 41.4269 269.534C37.3119 269.249 33.2593 268.374 29.3938 266.935C26.4757 265.763 23.4515 264.816 20.5828 263.58C18.3456 262.505 16.177 261.293 14.0893 259.95C12.1744 258.785 10.302 257.535 8.47901 256.228C7.67536 255.582 6.93485 254.86 6.26741 254.074C4.57161 252.252 2.88523 250.42 1.20828 248.58C-0.911465 246.242 -0.120093 243.798 2.62144 242.64C3.45772 242.36 4.31239 242.138 5.17929 241.976L5.44072 242.322C5.34885 242.67 5.1983 243 4.99557 243.297C4.6895 243.595 4.31988 243.819 3.9145 243.954C3.36074 244.113 2.86902 244.438 2.5053 244.885C2.14159 245.332 1.92325 245.879 1.87954 246.454C4.10594 249.724 6.8118 252.64 9.9063 255.105C12.4031 257.128 15.1364 258.84 18.0461 260.204C19.7773 261.052 21.3883 262.161 23.1618 262.867C26.5173 264.303 29.9634 265.518 33.4779 266.504C36.7423 267.323 40.1904 267.436 43.5325 268.016C45.4474 268.347 47.3622 268.333 49.277 268.496C53.9687 268.898 58.6463 268.581 63.3098 268.369C68.4749 268.136 73.6258 267.486 78.7627 266.864C83.4845 266.393 88.1797 265.686 92.8307 264.746C97.9817 263.601 103.175 262.627 108.22 260.967C116.218 258.394 123.93 255.005 131.233 250.854C136.886 247.555 142.419 243.932 147.881 240.26C154.687 235.723 161.166 230.713 167.269 225.266C167.458 225.119 167.662 224.991 167.877 224.885L168.004 225.012Z" fill="black"/>
<path d="M167.877 224.885L173.409 219.87C171.438 221.756 169.997 223.663 168.004 225.012L167.877 224.885Z" fill="black"/>
<path d="M176.052 216.89L173.72 219.489L173.416 219.228L175.741 216.579L176.052 216.89Z" fill="black"/>
<path d="M204.916 169.345L203.785 172.022L203.481 171.894L204.661 169.232L204.916 169.345Z" fill="black"/>
<path d="M188.071 200.427C187.597 201.416 187.117 202.398 186.658 203.386L186.326 203.21C186.625 202.127 187.255 201.164 188.127 200.455L188.071 200.427Z" fill="black"/>
<path d="M178.984 213.26L177.084 215.795L176.787 215.569C177.274 214.609 177.987 213.78 178.864 213.154L178.984 213.26Z" fill="black"/>
<path d="M200.959 177.043L202.104 174.585L202.45 174.741L201.312 177.213L200.959 177.043Z" fill="black"/>
<path d="M192.127 193.485L193.179 191.5L193.476 191.648L192.416 193.633L192.127 193.485Z" fill="black"/>
<path d="M184.079 206.663L185.223 204.467L185.562 204.686C185.454 205.096 185.264 205.481 185.003 205.816C184.742 206.151 184.415 206.43 184.043 206.635L184.079 206.663Z" fill="black"/>
<path d="M178.864 213.182L180.411 211.431L178.998 213.309L178.864 213.182Z" fill="black"/>
<path d="M189.293 198.683C189.477 198.104 189.661 197.532 189.837 196.959L190.282 197.164L189.244 198.633L189.293 198.683Z" fill="black"/>
<path d="M189.244 198.633L188.071 200.427H188.106C188.1 200.045 188.211 199.671 188.423 199.353C188.635 199.035 188.938 198.789 189.293 198.647L189.244 198.633Z" fill="black"/>
<path d="M205.354 167.354L205.806 166.287L206.011 166.372L205.594 167.558L205.354 167.354Z" fill="black"/>
<path d="M182.927 208.09C183.316 207.617 183.697 207.143 184.079 206.677H184.043L183.026 208.217L182.927 208.09Z" fill="black"/>
<path d="M183.026 208.175L182.157 209.587L181.825 209.326L182.927 208.104L183.026 208.175Z" fill="black"/>
<path d="M180.412 211.431L181.196 210.018L181.563 210.315L180.39 211.388L180.412 211.431Z" fill="black"/>
</g>
<defs>
<clipPath id="clip0">
<rect width="378" height="270" fill="white"/>
</clipPath>
</defs>
</svg>
