<svg width="15" height="196" viewBox="0 0 15 196" fill="none" xmlns="http://www.w3.org/2000/svg">
<g clip-path="url(#clip0)">
<path d="M14 189C12.2363 189.283 10.6069 190.116 9.34377 191.379C8.08065 192.642 7.2482 194.271 6.96486 196.035C6.67648 194.274 5.84238 192.647 4.58016 191.385C3.31794 190.122 1.69129 189.288 -0.0703125 189C1.6934 188.717 3.32276 187.884 4.58588 186.621C5.84901 185.358 6.68153 183.729 6.96486 181.965C7.24308 183.731 8.07386 185.363 9.3379 186.627C10.6019 187.891 12.2342 188.722 14 189Z" fill="#0A0B0B"/>
</g>
<path d="M7.662 124.941C8.298 124.941 8.882 125.047 9.414 125.259C9.946 125.471 10.404 125.769 10.788 126.153C11.172 126.537 11.47 126.999 11.682 127.539C11.894 128.079 12 128.677 12 129.333L12 132.645L3.324 132.645L3.324 129.333C3.324 128.677 3.432 128.079 3.648 127.539C3.86 126.999 4.158 126.537 4.542 126.153C4.922 125.769 5.378 125.471 5.91 125.259C6.442 125.047 7.026 124.941 7.662 124.941ZM7.662 126.591C7.186 126.591 6.76 126.655 6.384 126.783C6.004 126.911 5.684 127.093 5.424 127.329C5.16 127.565 4.958 127.853 4.818 128.193C4.678 128.529 4.608 128.909 4.608 129.333L4.608 131.019L10.716 131.019L10.716 129.333C10.716 128.909 10.646 128.529 10.506 128.193C10.366 127.853 10.166 127.565 9.906 127.329C9.642 127.093 9.322 126.911 8.946 126.783C8.566 126.655 8.138 126.591 7.662 126.591ZM5.844 122.187L12 122.187L12 123.669L5.844 123.669L5.844 122.187ZM4.05 121.965C4.178 121.965 4.298 121.991 4.41 122.043C4.522 122.095 4.62 122.165 4.704 122.253C4.788 122.337 4.856 122.437 4.908 122.553C4.956 122.669 4.98 122.793 4.98 122.925C4.98 123.053 4.956 123.175 4.908 123.291C4.856 123.403 4.788 123.501 4.704 123.585C4.62 123.669 4.522 123.737 4.41 123.789C4.298 123.837 4.178 123.861 4.05 123.861C3.918 123.861 3.794 123.837 3.678 123.789C3.562 123.737 3.462 123.669 3.378 123.585C3.294 123.501 3.228 123.403 3.18 123.291C3.128 123.175 3.102 123.053 3.102 122.925C3.102 122.793 3.128 122.669 3.18 122.553C3.228 122.437 3.294 122.337 3.378 122.253C3.462 122.165 3.562 122.095 3.678 122.043C3.794 121.991 3.918 121.965 4.05 121.965ZM5.736 118.377C5.736 118.113 5.764 117.865 5.82 117.633C5.872 117.401 5.95 117.189 6.054 116.997L6.054 115.227L6.606 115.227C6.698 115.227 6.77 115.251 6.822 115.299C6.874 115.347 6.91 115.429 6.93 115.545L7.032 116.097C7.136 116.057 7.246 116.027 7.362 116.007C7.478 115.983 7.6 115.971 7.728 115.971C8.032 115.971 8.308 116.033 8.556 116.157C8.8 116.277 9.008 116.445 9.18 116.661C9.352 116.873 9.486 117.127 9.582 117.423C9.674 117.715 9.72 118.033 9.72 118.377C9.72 118.609 9.698 118.835 9.654 119.055C9.77 119.247 9.9 119.343 10.044 119.343C10.168 119.343 10.26 119.287 10.32 119.175C10.376 119.059 10.416 118.909 10.44 118.725C10.464 118.537 10.48 118.325 10.488 118.089C10.492 117.853 10.504 117.611 10.524 117.363C10.544 117.115 10.58 116.873 10.632 116.637C10.68 116.401 10.758 116.191 10.866 116.007C10.974 115.819 11.122 115.669 11.31 115.557C11.494 115.441 11.732 115.383 12.024 115.383C12.296 115.383 12.56 115.451 12.816 115.587C13.072 115.719 13.3 115.913 13.5 116.169C13.7 116.421 13.86 116.731 13.98 117.099C14.104 117.467 14.166 117.887 14.166 118.359C14.166 118.827 14.12 119.233 14.028 119.577C13.94 119.921 13.82 120.207 13.668 120.435C13.52 120.659 13.348 120.827 13.152 120.939C12.956 121.051 12.752 121.107 12.54 121.107C12.252 121.107 12.01 121.019 11.814 120.843C11.618 120.667 11.462 120.423 11.346 120.111C11.262 120.263 11.15 120.385 11.01 120.477C10.87 120.569 10.688 120.615 10.464 120.615C10.372 120.615 10.278 120.599 10.182 120.567C10.082 120.535 9.984 120.487 9.888 120.423C9.792 120.355 9.702 120.271 9.618 120.171C9.53 120.071 9.452 119.953 9.384 119.817C9.216 120.129 8.992 120.375 8.712 120.555C8.432 120.731 8.104 120.819 7.728 120.819C7.424 120.819 7.15 120.759 6.906 120.639C6.658 120.515 6.448 120.345 6.276 120.129C6.1 119.909 5.966 119.651 5.874 119.355C5.782 119.055 5.736 118.729 5.736 118.377ZM12.276 116.751C12.156 116.751 12.058 116.787 11.982 116.859C11.906 116.931 11.848 117.029 11.808 117.153C11.764 117.277 11.732 117.423 11.712 117.591C11.692 117.755 11.678 117.931 11.67 118.119C11.658 118.303 11.648 118.495 11.64 118.695C11.628 118.891 11.61 119.081 11.586 119.265C11.678 119.433 11.788 119.569 11.916 119.673C12.04 119.773 12.184 119.823 12.348 119.823C12.456 119.823 12.556 119.797 12.648 119.745C12.744 119.689 12.826 119.603 12.894 119.487C12.962 119.367 13.014 119.213 13.05 119.025C13.09 118.837 13.11 118.607 13.11 118.335C13.11 118.059 13.088 117.821 13.044 117.621C13.004 117.421 12.946 117.257 12.87 117.129C12.798 116.997 12.71 116.901 12.606 116.841C12.506 116.781 12.396 116.751 12.276 116.751ZM8.772 118.377C8.772 118.193 8.748 118.033 8.7 117.897C8.648 117.761 8.578 117.649 8.49 117.561C8.402 117.469 8.296 117.401 8.172 117.357C8.048 117.309 7.912 117.285 7.764 117.285C7.46 117.285 7.22 117.377 7.044 117.561C6.864 117.741 6.774 118.013 6.774 118.377C6.774 118.741 6.864 119.015 7.044 119.199C7.22 119.379 7.46 119.469 7.764 119.469C7.908 119.469 8.042 119.447 8.166 119.403C8.29 119.355 8.398 119.287 8.49 119.199C8.578 119.107 8.648 118.993 8.7 118.857C8.748 118.717 8.772 118.557 8.772 118.377ZM5.844 112.718L12 112.718L12 114.2L5.844 114.2L5.844 112.718ZM4.05 112.496C4.178 112.496 4.298 112.522 4.41 112.574C4.522 112.626 4.62 112.696 4.704 112.784C4.788 112.868 4.856 112.968 4.908 113.084C4.956 113.2 4.98 113.324 4.98 113.456C4.98 113.584 4.956 113.706 4.908 113.822C4.856 113.934 4.788 114.032 4.704 114.116C4.62 114.2 4.522 114.268 4.41 114.32C4.298 114.368 4.178 114.392 4.05 114.392C3.918 114.392 3.794 114.368 3.678 114.32C3.562 114.268 3.462 114.2 3.378 114.116C3.294 114.032 3.228 113.934 3.18 113.822C3.128 113.706 3.102 113.584 3.102 113.456C3.102 113.324 3.128 113.2 3.18 113.084C3.228 112.968 3.294 112.868 3.378 112.784C3.462 112.696 3.562 112.626 3.678 112.574C3.794 112.522 3.918 112.496 4.05 112.496ZM12.096 109.016C12.096 109.548 11.946 109.958 11.646 110.246C11.342 110.534 10.924 110.678 10.392 110.678L6.954 110.678L6.954 111.302C6.954 111.382 6.928 111.452 6.876 111.512C6.824 111.568 6.746 111.596 6.642 111.596L6.054 111.596L5.892 110.606L4.212 110.294C4.132 110.278 4.07 110.242 4.026 110.186C3.982 110.126 3.96 110.052 3.96 109.964L3.96 109.196L5.898 109.196L5.898 107.576L6.954 107.576L6.954 109.196L10.29 109.196C10.482 109.196 10.632 109.148 10.74 109.052C10.848 108.956 10.902 108.828 10.902 108.668C10.902 108.576 10.892 108.5 10.872 108.44C10.848 108.376 10.824 108.322 10.8 108.278C10.776 108.23 10.754 108.188 10.734 108.152C10.71 108.116 10.698 108.08 10.698 108.044C10.698 108 10.71 107.964 10.734 107.936C10.754 107.908 10.786 107.878 10.83 107.846L11.55 107.402C11.73 107.618 11.866 107.866 11.958 108.146C12.05 108.426 12.096 108.716 12.096 109.016ZM12 101.573L12 102.239C12 102.379 11.98 102.489 11.94 102.569C11.896 102.649 11.81 102.709 11.682 102.749L11.244 102.881C11.384 103.037 11.508 103.191 11.616 103.343C11.72 103.491 11.808 103.645 11.88 103.805C11.952 103.965 12.006 104.135 12.042 104.315C12.078 104.495 12.096 104.695 12.096 104.915C12.096 105.175 12.062 105.415 11.994 105.635C11.922 105.855 11.816 106.045 11.676 106.205C11.536 106.361 11.362 106.483 11.154 106.571C10.946 106.659 10.704 106.703 10.428 106.703C10.196 106.703 9.968 106.643 9.744 106.523C9.516 106.399 9.312 106.195 9.132 105.911C8.948 105.627 8.796 105.249 8.676 104.777C8.556 104.305 8.488 103.719 8.472 103.019L8.112 103.019C7.7 103.019 7.396 103.107 7.2 103.283C7 103.455 6.9 103.707 6.9 104.039C6.9 104.279 6.928 104.479 6.984 104.639C7.04 104.799 7.104 104.939 7.176 105.059C7.244 105.175 7.306 105.283 7.362 105.383C7.418 105.483 7.446 105.593 7.446 105.713C7.446 105.813 7.42 105.899 7.368 105.971C7.316 106.043 7.252 106.101 7.176 106.145L6.702 106.415C6.054 105.707 5.73 104.853 5.73 103.853C5.73 103.493 5.79 103.173 5.91 102.893C6.026 102.609 6.19 102.369 6.402 102.173C6.61 101.977 6.86 101.829 7.152 101.729C7.444 101.625 7.764 101.573 8.112 101.573L12 101.573ZM11.076 104.453C11.076 104.301 11.062 104.161 11.034 104.033C11.006 103.905 10.964 103.785 10.908 103.673C10.852 103.557 10.784 103.447 10.704 103.343C10.62 103.235 10.522 103.127 10.41 103.019L9.372 103.019C9.392 103.451 9.43 103.813 9.486 104.105C9.538 104.393 9.606 104.625 9.69 104.801C9.774 104.977 9.872 105.103 9.984 105.179C10.096 105.251 10.218 105.287 10.35 105.287C10.61 105.287 10.796 105.211 10.908 105.059C11.02 104.903 11.076 104.701 11.076 104.453ZM3.084 98.5382L12 98.5382L12 100.02L3.084 100.02L3.084 98.5382ZM9.954 88.4901C9.954 88.4021 9.988 88.3261 10.056 88.2621L10.746 87.6261C11.182 87.9781 11.516 88.4121 11.748 88.9281C11.98 89.4401 12.096 90.0561 12.096 90.7761C12.096 91.4201 11.986 92.0001 11.766 92.5161C11.546 93.0281 11.24 93.4661 10.848 93.8301C10.456 94.1941 9.988 94.4741 9.444 94.6701C8.9 94.8621 8.306 94.9581 7.662 94.9581C7.01 94.9581 6.414 94.8501 5.874 94.6341C5.33 94.4181 4.862 94.1141 4.47 93.7221C4.078 93.3301 3.774 92.8621 3.558 92.3181C3.338 91.7701 3.228 91.1661 3.228 90.5061C3.228 89.8621 3.332 89.3001 3.54 88.8201C3.744 88.3361 4.016 87.9221 4.356 87.5781L5.106 88.1181C5.154 88.1501 5.196 88.1921 5.232 88.2441C5.268 88.2921 5.286 88.3601 5.286 88.4481C5.286 88.5401 5.25 88.6341 5.178 88.7301C5.106 88.8261 5.028 88.9481 4.944 89.0961C4.86 89.2441 4.782 89.4321 4.71 89.6601C4.638 89.8841 4.602 90.1701 4.602 90.5181C4.602 90.9261 4.674 91.3021 4.818 91.6461C4.958 91.9861 5.16 92.2801 5.424 92.5281C5.688 92.7721 6.01 92.9641 6.39 93.1041C6.766 93.2401 7.19 93.3081 7.662 93.3081C8.15 93.3081 8.584 93.2401 8.964 93.1041C9.344 92.9641 9.664 92.7761 9.924 92.5401C10.184 92.3041 10.384 92.0261 10.524 91.7061C10.66 91.3861 10.728 91.0421 10.728 90.6741C10.728 90.4541 10.716 90.2561 10.692 90.0801C10.668 89.9001 10.63 89.7361 10.578 89.5881C10.526 89.4361 10.46 89.2941 10.38 89.1621C10.296 89.0261 10.194 88.8921 10.074 88.7601C10.038 88.7201 10.01 88.6781 9.99 88.6341C9.966 88.5901 9.954 88.5421 9.954 88.4901ZM12 86.4873L5.844 86.4873L5.844 85.6173C5.844 85.4653 5.872 85.3593 5.928 85.2993C5.984 85.2393 6.08 85.1993 6.216 85.1793L6.96 85.0893C6.58 84.8693 6.28 84.6113 6.06 84.3153C5.84 84.0193 5.73 83.6873 5.73 83.3193C5.73 83.0153 5.8 82.7633 5.94 82.5633L7.05 82.7553C7.122 82.7673 7.174 82.7933 7.206 82.8333C7.234 82.8733 7.248 82.9273 7.248 82.9953C7.248 83.0553 7.234 83.1373 7.206 83.2413C7.178 83.3453 7.164 83.4833 7.164 83.6553C7.164 83.9633 7.25 84.2273 7.422 84.4473C7.59 84.6673 7.838 84.8533 8.166 85.0053L12 85.0053L12 86.4873ZM5.748 79.0449C5.748 78.6569 5.81 78.3009 5.934 77.9769C6.058 77.6489 6.24 77.3669 6.48 77.1309C6.716 76.8949 7.008 76.7109 7.356 76.5789C7.7 76.4469 8.094 76.3809 8.538 76.3809C8.65 76.3809 8.744 76.3869 8.82 76.3989C8.892 76.4069 8.95 76.4249 8.994 76.4529C9.034 76.4769 9.064 76.5109 9.084 76.5549C9.1 76.5989 9.108 76.6549 9.108 76.7229L9.108 80.5269C9.74 80.4829 10.204 80.3129 10.5 80.0169C10.796 79.7209 10.944 79.3289 10.944 78.8409C10.944 78.6009 10.916 78.3949 10.86 78.2229C10.804 78.0469 10.742 77.8949 10.674 77.7669C10.606 77.6349 10.544 77.5209 10.488 77.4249C10.432 77.3249 10.404 77.2289 10.404 77.1369C10.404 77.0769 10.416 77.0249 10.44 76.9809C10.464 76.9369 10.498 76.8989 10.542 76.8669L11.082 76.4349C11.274 76.5989 11.436 76.7829 11.568 76.9869C11.696 77.1909 11.8 77.4049 11.88 77.6289C11.956 77.8489 12.01 78.0749 12.042 78.3069C12.074 78.5349 12.09 78.7569 12.09 78.9729C12.09 79.4009 12.02 79.7989 11.88 80.1669C11.736 80.5349 11.526 80.8549 11.25 81.1269C10.97 81.3989 10.626 81.6129 10.218 81.7689C9.806 81.9249 9.33 82.0029 8.79 82.0029C8.37 82.0029 7.976 81.9349 7.608 81.7989C7.236 81.6629 6.914 81.4689 6.642 81.2169C6.366 80.9609 6.148 80.6509 5.988 80.2869C5.828 79.9189 5.748 79.5049 5.748 79.0449ZM6.81 79.0149C6.81 79.4469 6.932 79.7849 7.176 80.0289C7.42 80.2729 7.766 80.4289 8.214 80.4969L8.214 77.7129C8.022 77.7129 7.842 77.7389 7.674 77.7909C7.502 77.8429 7.352 77.9229 7.224 78.0309C7.096 78.1389 6.996 78.2749 6.924 78.4389C6.848 78.6029 6.81 78.7949 6.81 79.0149ZM12 70.3547L12 71.0207C12 71.1607 11.98 71.2707 11.94 71.3507C11.896 71.4307 11.81 71.4907 11.682 71.5307L11.244 71.6627C11.384 71.8187 11.508 71.9727 11.616 72.1247C11.72 72.2727 11.808 72.4267 11.88 72.5867C11.952 72.7467 12.006 72.9167 12.042 73.0967C12.078 73.2767 12.096 73.4767 12.096 73.6967C12.096 73.9567 12.062 74.1967 11.994 74.4167C11.922 74.6367 11.816 74.8267 11.676 74.9867C11.536 75.1427 11.362 75.2647 11.154 75.3527C10.946 75.4407 10.704 75.4847 10.428 75.4847C10.196 75.4847 9.968 75.4247 9.744 75.3047C9.516 75.1807 9.312 74.9767 9.132 74.6927C8.948 74.4087 8.796 74.0307 8.676 73.5587C8.556 73.0867 8.488 72.5007 8.472 71.8007L8.112 71.8007C7.7 71.8007 7.396 71.8887 7.2 72.0647C7 72.2367 6.9 72.4887 6.9 72.8207C6.9 73.0607 6.928 73.2607 6.984 73.4207C7.04 73.5807 7.104 73.7207 7.176 73.8407C7.244 73.9567 7.306 74.0647 7.362 74.1647C7.418 74.2647 7.446 74.3747 7.446 74.4947C7.446 74.5947 7.42 74.6807 7.368 74.7527C7.316 74.8247 7.252 74.8827 7.176 74.9267L6.702 75.1967C6.054 74.4887 5.73 73.6347 5.73 72.6347C5.73 72.2747 5.79 71.9547 5.91 71.6747C6.026 71.3907 6.19 71.1507 6.402 70.9547C6.61 70.7587 6.86 70.6107 7.152 70.5107C7.444 70.4067 7.764 70.3547 8.112 70.3547L12 70.3547ZM11.076 73.2347C11.076 73.0827 11.062 72.9427 11.034 72.8147C11.006 72.6867 10.964 72.5667 10.908 72.4547C10.852 72.3387 10.784 72.2287 10.704 72.1247C10.62 72.0167 10.522 71.9087 10.41 71.8007L9.372 71.8007C9.392 72.2327 9.43 72.5947 9.486 72.8867C9.538 73.1747 9.606 73.4067 9.69 73.5827C9.774 73.7587 9.872 73.8847 9.984 73.9607C10.096 74.0327 10.218 74.0687 10.35 74.0687C10.61 74.0687 10.796 73.9927 10.908 73.8407C11.02 73.6847 11.076 73.4827 11.076 73.2347ZM12.096 66.8755C12.096 67.4075 11.946 67.8175 11.646 68.1055C11.342 68.3935 10.924 68.5375 10.392 68.5375L6.954 68.5375L6.954 69.1615C6.954 69.2415 6.928 69.3115 6.876 69.3715C6.824 69.4275 6.746 69.4555 6.642 69.4555L6.054 69.4555L5.892 68.4655L4.212 68.1535C4.132 68.1375 4.07 68.1015 4.026 68.0455C3.982 67.9855 3.96 67.9115 3.96 67.8235L3.96 67.0555L5.898 67.0555L5.898 65.4355L6.954 65.4355L6.954 67.0555L10.29 67.0555C10.482 67.0555 10.632 67.0075 10.74 66.9115C10.848 66.8155 10.902 66.6875 10.902 66.5275C10.902 66.4355 10.892 66.3595 10.872 66.2995C10.848 66.2355 10.824 66.1815 10.8 66.1375C10.776 66.0895 10.754 66.0475 10.734 66.0115C10.71 65.9755 10.698 65.9395 10.698 65.9035C10.698 65.8595 10.71 65.8235 10.734 65.7955C10.754 65.7675 10.786 65.7375 10.83 65.7055L11.55 65.2615C11.73 65.4775 11.866 65.7255 11.958 66.0055C12.05 66.2855 12.096 66.5755 12.096 66.8755ZM5.844 62.6788L12 62.6788L12 64.1608L5.844 64.1608L5.844 62.6788ZM4.05 62.4568C4.178 62.4568 4.298 62.4828 4.41 62.5348C4.522 62.5868 4.62 62.6568 4.704 62.7448C4.788 62.8288 4.856 62.9288 4.908 63.0448C4.956 63.1608 4.98 63.2848 4.98 63.4168C4.98 63.5448 4.956 63.6668 4.908 63.7828C4.856 63.8948 4.788 63.9928 4.704 64.0768C4.62 64.1608 4.522 64.2288 4.41 64.2808C4.298 64.3288 4.178 64.3528 4.05 64.3528C3.918 64.3528 3.794 64.3288 3.678 64.2808C3.562 64.2288 3.462 64.1608 3.378 64.0768C3.294 63.9928 3.228 63.8948 3.18 63.7828C3.128 63.6668 3.102 63.5448 3.102 63.4168C3.102 63.2848 3.128 63.1608 3.18 63.0448C3.228 62.9288 3.294 62.8288 3.378 62.7448C3.462 62.6568 3.562 62.5868 3.678 62.5348C3.794 62.4828 3.918 62.4568 4.05 62.4568ZM12 57.915L12 59.259L5.844 61.707L5.844 60.477C5.844 60.369 5.87 60.279 5.922 60.207C5.974 60.131 6.04 60.079 6.12 60.051L9.408 58.863C9.6 58.795 9.788 58.739 9.972 58.695C10.156 58.647 10.34 58.605 10.524 58.569C10.34 58.533 10.156 58.493 9.972 58.449C9.788 58.401 9.6 58.341 9.408 58.269L6.12 57.051C6.04 57.023 5.974 56.973 5.922 56.901C5.87 56.829 5.844 56.743 5.844 56.643L5.844 55.473L12 57.915ZM5.748 52.2558C5.748 51.8678 5.81 51.5118 5.934 51.1878C6.058 50.8598 6.24 50.5778 6.48 50.3418C6.716 50.1058 7.008 49.9218 7.356 49.7898C7.7 49.6578 8.094 49.5918 8.538 49.5918C8.65 49.5918 8.744 49.5978 8.82 49.6098C8.892 49.6178 8.95 49.6358 8.994 49.6638C9.034 49.6878 9.064 49.7218 9.084 49.7658C9.1 49.8098 9.108 49.8658 9.108 49.9338L9.108 53.7378C9.74 53.6938 10.204 53.5238 10.5 53.2278C10.796 52.9318 10.944 52.5398 10.944 52.0518C10.944 51.8118 10.916 51.6058 10.86 51.4338C10.804 51.2578 10.742 51.1058 10.674 50.9778C10.606 50.8458 10.544 50.7318 10.488 50.6358C10.432 50.5358 10.404 50.4398 10.404 50.3478C10.404 50.2878 10.416 50.2358 10.44 50.1918C10.464 50.1478 10.498 50.1098 10.542 50.0778L11.082 49.6458C11.274 49.8098 11.436 49.9938 11.568 50.1978C11.696 50.4018 11.8 50.6158 11.88 50.8398C11.956 51.0598 12.01 51.2858 12.042 51.5178C12.074 51.7458 12.09 51.9678 12.09 52.1838C12.09 52.6118 12.02 53.0098 11.88 53.3778C11.736 53.7458 11.526 54.0658 11.25 54.3378C10.97 54.6098 10.626 54.8238 10.218 54.9798C9.806 55.1358 9.33 55.2138 8.79 55.2138C8.37 55.2138 7.976 55.1458 7.608 55.0098C7.236 54.8738 6.914 54.6798 6.642 54.4278C6.366 54.1718 6.148 53.8618 5.988 53.4978C5.828 53.1298 5.748 52.7158 5.748 52.2558ZM6.81 52.2258C6.81 52.6578 6.932 52.9958 7.176 53.2398C7.42 53.4838 7.766 53.6398 8.214 53.7078L8.214 50.9238C8.022 50.9238 7.842 50.9498 7.674 51.0018C7.502 51.0538 7.352 51.1338 7.224 51.2418C7.096 51.3498 6.996 51.4858 6.924 51.6498C6.848 51.8138 6.81 52.0058 6.81 52.2258ZM8.946 44.3173L12 44.3173L12 45.9313L3.324 45.9313L3.324 43.1053C3.324 42.5253 3.392 42.0233 3.528 41.5993C3.664 41.1753 3.854 40.8253 4.098 40.5493C4.342 40.2733 4.634 40.0693 4.974 39.9373C5.314 39.8053 5.686 39.7393 6.09 39.7393C6.51 39.7393 6.896 39.8093 7.248 39.9493C7.596 40.0893 7.896 40.2993 8.148 40.5793C8.4 40.8593 8.596 41.2093 8.736 41.6293C8.876 42.0493 8.946 42.5413 8.946 43.1053L8.946 44.3173ZM7.686 44.3173L7.686 43.1053C7.686 42.8093 7.65 42.5513 7.578 42.3313C7.502 42.1113 7.396 41.9293 7.26 41.7853C7.12 41.6413 6.952 41.5333 6.756 41.4613C6.556 41.3893 6.334 41.3533 6.09 41.3533C5.858 41.3533 5.648 41.3893 5.46 41.4613C5.272 41.5333 5.112 41.6413 4.98 41.7853C4.848 41.9293 4.748 42.1113 4.68 42.3313C4.608 42.5513 4.572 42.8093 4.572 43.1053L4.572 44.3173L7.686 44.3173ZM12 34.05L12 34.716C12 34.856 11.98 34.966 11.94 35.046C11.896 35.126 11.81 35.186 11.682 35.226L11.244 35.358C11.384 35.514 11.508 35.668 11.616 35.82C11.72 35.968 11.808 36.122 11.88 36.282C11.952 36.442 12.006 36.612 12.042 36.792C12.078 36.972 12.096 37.172 12.096 37.392C12.096 37.652 12.062 37.892 11.994 38.112C11.922 38.332 11.816 38.522 11.676 38.682C11.536 38.838 11.362 38.96 11.154 39.048C10.946 39.136 10.704 39.18 10.428 39.18C10.196 39.18 9.968 39.12 9.744 39C9.516 38.876 9.312 38.672 9.132 38.388C8.948 38.104 8.796 37.726 8.676 37.254C8.556 36.782 8.488 36.196 8.472 35.496L8.112 35.496C7.7 35.496 7.396 35.584 7.2 35.76C7 35.932 6.9 36.184 6.9 36.516C6.9 36.756 6.928 36.956 6.984 37.116C7.04 37.276 7.104 37.416 7.176 37.536C7.244 37.652 7.306 37.76 7.362 37.86C7.418 37.96 7.446 38.07 7.446 38.19C7.446 38.29 7.42 38.376 7.368 38.448C7.316 38.52 7.252 38.578 7.176 38.622L6.702 38.892C6.054 38.184 5.73 37.33 5.73 36.33C5.73 35.97 5.79 35.65 5.91 35.37C6.026 35.086 6.19 34.846 6.402 34.65C6.61 34.454 6.86 34.306 7.152 34.206C7.444 34.102 7.764 34.05 8.112 34.05L12 34.05ZM11.076 36.93C11.076 36.778 11.062 36.638 11.034 36.51C11.006 36.382 10.964 36.262 10.908 36.15C10.852 36.034 10.784 35.924 10.704 35.82C10.62 35.712 10.522 35.604 10.41 35.496L9.372 35.496C9.392 35.928 9.43 36.29 9.486 36.582C9.538 36.87 9.606 37.102 9.69 37.278C9.774 37.454 9.872 37.58 9.984 37.656C10.096 37.728 10.218 37.764 10.35 37.764C10.61 37.764 10.796 37.688 10.908 37.536C11.02 37.38 11.076 37.178 11.076 36.93ZM12 32.5928L5.844 32.5928L5.844 31.7228C5.844 31.5708 5.872 31.4648 5.928 31.4048C5.984 31.3448 6.08 31.3048 6.216 31.2848L6.96 31.1948C6.58 30.9748 6.28 30.7168 6.06 30.4208C5.84 30.1248 5.72999 29.7928 5.72999 29.4248C5.72999 29.1208 5.8 28.8688 5.94 28.6688L7.05 28.8608C7.122 28.8728 7.174 28.8988 7.206 28.9388C7.234 28.9788 7.248 29.0328 7.248 29.1008C7.248 29.1608 7.234 29.2428 7.206 29.3468C7.178 29.4508 7.164 29.5888 7.164 29.7608C7.164 30.0688 7.25 30.3328 7.422 30.5528C7.59 30.7728 7.838 30.9588 8.166 31.1108L12 31.1108L12 32.5928ZM12.096 25.6723C12.096 26.2043 11.946 26.6143 11.646 26.9023C11.342 27.1903 10.924 27.3343 10.392 27.3343L6.954 27.3343L6.954 27.9583C6.954 28.0383 6.928 28.1083 6.876 28.1683C6.824 28.2243 6.746 28.2523 6.64199 28.2523L6.054 28.2523L5.892 27.2623L4.21199 26.9503C4.13199 26.9343 4.06999 26.8983 4.02599 26.8423C3.98199 26.7823 3.96 26.7083 3.96 26.6203L3.96 25.8523L5.89799 25.8523L5.89799 24.2323L6.954 24.2323L6.954 25.8523L10.29 25.8523C10.482 25.8523 10.632 25.8043 10.74 25.7083C10.848 25.6123 10.902 25.4843 10.902 25.3243C10.902 25.2323 10.892 25.1563 10.872 25.0963C10.848 25.0323 10.824 24.9783 10.8 24.9343C10.776 24.8863 10.754 24.8443 10.734 24.8083C10.71 24.7723 10.698 24.7363 10.698 24.7003C10.698 24.6563 10.71 24.6203 10.734 24.5923C10.754 24.5643 10.786 24.5343 10.83 24.5023L11.55 24.0583C11.73 24.2743 11.866 24.5223 11.958 24.8023C12.05 25.0823 12.096 25.3723 12.096 25.6723ZM12 23.0537L5.844 23.0537L5.84399 22.1477C5.84399 21.9557 5.93399 21.8297 6.11399 21.7697L6.59999 21.6677C6.47199 21.5437 6.35599 21.4137 6.25199 21.2777C6.14799 21.1377 6.05799 20.9917 5.98199 20.8397C5.90599 20.6837 5.84799 20.5177 5.80799 20.3417C5.76799 20.1657 5.74799 19.9737 5.74799 19.7657C5.74799 19.4297 5.80599 19.1317 5.92199 18.8717C6.03399 18.6117 6.19399 18.3957 6.40199 18.2237C6.60599 18.0477 6.85199 17.9157 7.13999 17.8277C7.42399 17.7357 7.73799 17.6897 8.08199 17.6897L12 17.6897L12 19.1717L8.08199 19.1717C7.70599 19.1717 7.41599 19.2597 7.21199 19.4357C7.00399 19.6077 6.89999 19.8677 6.89999 20.2157C6.89999 20.4717 6.95799 20.7117 7.07399 20.9357C7.18999 21.1597 7.34799 21.3717 7.54799 21.5717L12 21.5717L12 23.0537ZM5.74799 13.6894C5.74799 13.3014 5.80999 12.9454 5.93399 12.6214C6.05799 12.2934 6.23999 12.0114 6.47999 11.7754C6.71599 11.5394 7.00799 11.3554 7.35599 11.2234C7.69999 11.0914 8.09399 11.0254 8.53799 11.0254C8.64999 11.0254 8.74399 11.0314 8.81999 11.0434C8.89199 11.0514 8.94999 11.0694 8.99399 11.0974C9.03399 11.1214 9.06399 11.1554 9.08399 11.1994C9.09999 11.2434 9.10799 11.2994 9.10799 11.3674L9.10799 15.1714C9.73999 15.1274 10.204 14.9574 10.5 14.6614C10.796 14.3654 10.944 13.9734 10.944 13.4854C10.944 13.2454 10.916 13.0394 10.86 12.8674C10.804 12.6914 10.742 12.5394 10.674 12.4114C10.606 12.2794 10.544 12.1654 10.488 12.0694C10.432 11.9694 10.404 11.8734 10.404 11.7814C10.404 11.7214 10.416 11.6694 10.44 11.6254C10.464 11.5814 10.498 11.5434 10.542 11.5114L11.082 11.0794C11.274 11.2434 11.436 11.4274 11.568 11.6314C11.696 11.8354 11.8 12.0494 11.88 12.2734C11.956 12.4934 12.01 12.7194 12.042 12.9514C12.074 13.1794 12.09 13.4014 12.09 13.6174C12.09 14.0454 12.02 14.4434 11.88 14.8114C11.736 15.1794 11.526 15.4994 11.25 15.7714C10.97 16.0434 10.626 16.2574 10.218 16.4134C9.80599 16.5694 9.32999 16.6474 8.78999 16.6474C8.36999 16.6474 7.97599 16.5794 7.60799 16.4434C7.23599 16.3074 6.91399 16.1134 6.64199 15.8614C6.36599 15.6054 6.14799 15.2954 5.98799 14.9314C5.82799 14.5634 5.74799 14.1494 5.74799 13.6894ZM6.80999 13.6594C6.80999 14.0914 6.93199 14.4294 7.17599 14.6734C7.41999 14.9174 7.76599 15.0734 8.21399 15.1414L8.21399 12.3574C8.02199 12.3574 7.84199 12.3834 7.67399 12.4354C7.50199 12.4874 7.35199 12.5674 7.22399 12.6754C7.09599 12.7834 6.99599 12.9194 6.92399 13.0834C6.84799 13.2474 6.80999 13.4394 6.80999 13.6594ZM12 9.82323L5.84399 9.82323L5.84399 8.95323C5.84399 8.80123 5.87199 8.69523 5.92799 8.63523C5.98399 8.57523 6.07999 8.53523 6.21599 8.51523L6.95999 8.42523C6.57999 8.20523 6.27999 7.94723 6.05999 7.65123C5.83999 7.35523 5.72999 7.02323 5.72999 6.65523C5.72999 6.35123 5.79999 6.09923 5.93999 5.89923L7.04999 6.09123C7.12199 6.10323 7.17399 6.12923 7.20599 6.16923C7.23399 6.20923 7.24799 6.26323 7.24799 6.33123C7.24799 6.39123 7.23399 6.47323 7.20599 6.57723C7.17799 6.68123 7.16399 6.81923 7.16399 6.99123C7.16399 7.29923 7.24999 7.56323 7.42199 7.78323C7.58999 8.00323 7.83799 8.18923 8.16599 8.34123L12 8.34123L12 9.82323ZM7.04399 1.2708C7.10799 1.3108 7.15399 1.3528 7.18199 1.3968C7.20599 1.4408 7.21799 1.4968 7.21799 1.5648C7.21799 1.6368 7.19799 1.7148 7.15799 1.7988C7.11799 1.8788 7.07399 1.9728 7.02599 2.0808C6.97399 2.1888 6.92799 2.3128 6.88799 2.4528C6.84799 2.5888 6.82799 2.7508 6.82799 2.9388C6.82799 3.2308 6.88999 3.4608 7.01399 3.6288C7.13799 3.7968 7.29999 3.8808 7.49999 3.8808C7.63199 3.8808 7.74399 3.8388 7.83599 3.7548C7.92399 3.6668 8.00199 3.5528 8.06999 3.4128C8.13799 3.2688 8.19999 3.1068 8.25599 2.9268C8.30799 2.7468 8.36599 2.5628 8.42999 2.3748C8.49399 2.1868 8.56799 2.0028 8.65199 1.8228C8.73199 1.6428 8.83599 1.4828 8.96399 1.3428C9.08799 1.1988 9.23799 1.0848 9.41399 1.0008C9.58999 0.912796 9.80199 0.868796 10.05 0.868796C10.346 0.868796 10.62 0.922796 10.872 1.0308C11.12 1.1388 11.336 1.2968 11.52 1.5048C11.7 1.7128 11.842 1.9708 11.946 2.2788C12.046 2.5828 12.096 2.9328 12.096 3.3288C12.096 3.5408 12.076 3.7488 12.036 3.9528C12 4.1528 11.948 4.3468 11.88 4.5348C11.812 4.7188 11.732 4.8908 11.64 5.0508C11.548 5.2068 11.448 5.3448 11.34 5.4648L10.776 5.1228C10.708 5.0788 10.656 5.0268 10.62 4.9668C10.584 4.9068 10.566 4.8308 10.566 4.7388C10.566 4.6468 10.592 4.5608 10.644 4.4808C10.696 4.3968 10.752 4.3008 10.812 4.1928C10.872 4.0848 10.928 3.9588 10.98 3.8148C11.032 3.6668 11.058 3.4808 11.058 3.2568C11.058 3.0808 11.038 2.9308 10.998 2.8068C10.954 2.6788 10.898 2.5748 10.83 2.4948C10.762 2.4108 10.684 2.3508 10.596 2.3148C10.504 2.2748 10.41 2.2548 10.314 2.2548C10.17 2.2548 10.052 2.2988 9.95999 2.3868C9.86799 2.4708 9.78799 2.5848 9.71999 2.7288C9.65199 2.8688 9.59199 3.0308 9.53999 3.2148C9.48399 3.3948 9.42399 3.5808 9.35999 3.7728C9.29599 3.9608 9.22199 4.1468 9.13799 4.3308C9.04999 4.5108 8.93999 4.6728 8.80799 4.8168C8.67599 4.9568 8.51399 5.0708 8.32199 5.1588C8.12999 5.2428 7.89799 5.2848 7.62599 5.2848C7.37399 5.2848 7.13399 5.2348 6.90599 5.1348C6.67799 5.0348 6.47999 4.8888 6.31199 4.6968C6.13999 4.5008 6.00399 4.2588 5.90399 3.9708C5.79999 3.6788 5.74799 3.3428 5.74799 2.9628C5.74799 2.5388 5.81799 2.1528 5.95799 1.8048C6.09799 1.4568 6.28199 1.1668 6.50999 0.934796L7.04399 1.2708Z" fill="#0A0B0B"/>
<defs>
<clipPath id="clip0">
<rect width="14" height="14" fill="white" transform="translate(0 182)"/>
</clipPath>
</defs>
</svg>
