<svg width="172" height="99" viewBox="0 0 172 99" fill="none" xmlns="http://www.w3.org/2000/svg">
<g clip-path="url(#clip0)">
<path d="M108.636 4.56068C106.742 3.96114 104.873 3.2745 102.974 2.78257C98.6902 1.61238 94.2884 0.924836 89.8509 0.732881C86.593 0.547816 83.3272 0.547816 80.0694 0.732881C76.4987 1.02293 72.9563 1.59003 69.4744 2.429C65.5314 3.42057 61.6513 4.64574 57.855 6.09794C54.9072 7.23266 52.0444 8.57519 49.2885 10.1153C45.0413 12.452 40.8301 14.8809 36.7527 17.4942C33.8621 19.3698 31.0921 21.4235 28.459 23.6433C25.3701 26.2054 22.3894 28.9007 19.5321 31.7139C17.6 33.7281 15.7718 35.8386 14.0545 38.0372C12.9051 39.3962 11.8326 40.8178 10.842 42.2955C9.278 44.5958 7.83125 46.973 6.5073 49.4181C5.26438 51.8607 4.176 54.3782 3.24851 56.9559C1.92532 60.387 1.13208 63.9978 0.895803 67.6655C0.814391 70.1163 0.874551 72.5697 1.07599 75.0136C1.27677 78.042 2.41966 80.7937 3.90233 83.4276C5.65785 86.5534 8.23708 88.8234 11.1458 90.868C15.1819 93.7068 19.6402 95.4798 24.3663 96.7506C29.0923 98.0214 33.9933 98.1392 38.8789 98.1034C42.8131 98.0292 46.7306 97.5727 50.5755 96.7403C54.0711 96.0229 57.5873 95.4029 61.0572 94.5625C63.9041 93.8759 66.6893 92.9176 69.5053 92.0978C71.8992 91.4009 74.3189 90.7911 76.7127 90.0481C80.6099 88.8388 84.4813 87.5424 88.363 86.2972C90.5098 85.6105 92.6669 84.97 94.8085 84.2475C96.8678 83.5711 98.927 82.8588 100.94 82.1312C104.621 80.8296 108.307 79.5383 111.967 78.1753C114.706 77.1504 117.419 76.0692 120.117 74.9521C123.015 73.7582 125.914 72.554 128.766 71.2524C132.467 69.5614 136.128 67.7833 139.798 66.0155C143.834 64.0734 147.871 62.1365 151.881 60.138C156.205 57.9858 160.494 55.7824 164.787 53.579C166.847 52.5132 168.906 51.3961 170.965 50.3097C171.243 50.1663 171.547 50.0587 171.84 49.9305C171.892 50.0382 171.949 50.1458 172.005 50.2483C170.142 51.2987 168.278 52.3594 166.409 53.3996C165.38 53.9736 164.35 54.5167 163.32 55.0753C161.93 55.8285 160.561 56.6125 159.161 57.3351C155.742 59.0978 152.298 60.8195 148.89 62.5976C147.896 63.1101 147.011 63.8377 146.017 64.3501C145.024 64.8625 144.046 65.088 143.119 65.5748C141.425 66.4664 139.798 67.4861 138.105 68.3726C137.389 68.7467 136.56 68.8851 135.814 69.2079C134.341 69.8433 132.905 70.5658 131.427 71.1909C130.073 71.77 128.673 72.2158 127.309 72.8051C126.67 73.0767 126.109 73.5122 125.481 73.8299C124.066 74.5114 122.65 75.193 121.203 75.8079C119.36 76.5902 117.503 77.3349 115.633 78.042C114.027 78.6518 112.389 79.1591 110.783 79.7689C109.095 80.4094 107.447 81.1627 105.748 81.7776C104.049 82.3925 102.227 82.9152 100.461 83.4737C96.1573 84.8402 91.8552 86.2066 87.5548 87.5731C85.2587 88.3059 82.9729 89.1104 80.6665 89.8021C77.1195 90.8936 73.5827 92.0209 69.9995 92.9791C64.7896 94.3781 59.5745 95.8128 54.2977 96.9094C49.9643 97.8078 45.5804 98.4443 41.1698 98.8156C36.297 99.2015 31.3943 98.9413 26.5903 98.0419C24.3869 97.6422 22.2607 96.7608 20.119 96.0383C18.6569 95.5259 17.2052 95.0135 15.7843 94.3832C11.4018 92.5557 7.55515 89.6541 4.60248 85.9487C2.83121 83.7534 1.56586 81.1977 0.895803 78.4622C0.0838994 75.0508 -0.171622 71.5317 0.139023 68.0396C0.384335 64.8874 0.999433 61.7746 1.97177 58.7647C2.87784 56.1104 4.03103 53.5329 5.14818 50.9605C6.80092 47.1412 8.96377 43.5612 11.5782 40.3175C14.0648 37.2686 16.4793 34.1684 19.1718 31.2835C22.7185 27.4771 26.6483 24.043 30.8993 21.035C34.6265 18.4319 38.3281 15.7827 42.1892 13.3897C44.9846 11.6526 48.0015 10.2793 50.9411 8.77791C52.7481 7.86067 54.5448 6.92807 56.4187 6.14919C61.3573 4.04768 66.4951 2.44431 71.7551 1.36316C77.2944 0.2505 82.9492 -0.186564 88.5947 0.0616086C92.6286 0.206331 96.6341 0.794054 100.538 1.81409C102.907 2.45462 105.254 3.17201 107.602 3.89453C107.976 4.06662 108.323 4.29282 108.631 4.5658L108.636 4.56068Z" fill="black"/>
<path d="M108.611 4.56054C109.035 4.61344 109.454 4.70433 109.862 4.83213C113.514 6.36121 116.992 8.2749 120.235 10.5405C123.77 12.9864 126.83 16.0508 129.265 19.5848C131.201 22.393 132.702 25.4745 133.718 28.7264C134.387 30.9701 134.857 33.2677 135.124 35.5928C135.191 36.7004 135.191 37.8109 135.124 38.9185C135.178 39.7443 135.178 40.5728 135.124 41.3986C135.026 42.1109 134.455 42.8078 134.511 43.4739C134.691 45.6773 133.42 47.3273 132.55 49.1105C130.98 52.3388 129.312 55.5158 126.887 58.2214C125.054 60.2711 123.376 62.4438 121.414 64.3397C119.139 66.5637 116.652 68.6133 114.155 70.6118C112.384 72.0363 110.464 73.2866 108.595 74.5831C108.302 74.788 107.88 74.7932 107.566 74.9776C103.833 77.2169 99.9722 79.2154 96.0905 81.1882C92.739 82.8894 89.2794 84.2935 85.7941 85.6821C82.9729 86.8197 79.9767 87.573 77.0886 88.5978C73.4152 89.8345 69.6175 90.6695 65.7626 91.0882C63.0472 91.4202 60.3129 91.576 57.5771 91.5545C54.1587 91.5545 50.7352 91.3393 47.3219 91.1087C44.6191 90.9293 41.9164 90.6731 39.2342 90.2939C35.9785 89.8484 32.6865 89.7248 29.4063 89.925C28.2789 89.9865 27.1206 89.4689 25.9777 89.2127L26.0085 88.9668C27.7744 88.9668 29.5402 88.9104 31.306 88.9668C33.8132 89.0692 36.3203 89.2332 38.8223 89.4382C43.6153 89.8328 48.3927 90.381 53.1908 90.6629C56.1342 90.862 59.0891 90.8174 62.0251 90.5296C65.7545 90.1856 69.4516 89.5552 73.0833 88.6439C77.4078 87.5012 81.6138 85.8922 85.8405 84.3959C88.0954 83.5966 90.3108 82.6947 92.4867 81.6904C95.0608 80.4964 97.6349 79.2051 100.137 77.8472C103.344 76.1101 106.526 74.3166 109.651 72.4411C111.128 71.5598 112.456 70.4376 113.846 69.4178C114.65 68.8804 115.422 68.297 116.158 67.6705C118.49 65.4876 120.766 63.2483 123.072 61.0397C126.012 58.1304 128.514 54.8132 130.501 51.191C132.907 46.9868 134.191 42.2398 134.233 37.4017C134.364 32.8835 133.397 28.4006 131.412 24.3349C129.917 21.2868 127.998 18.4631 125.713 15.9466C123.357 13.4113 120.684 11.1879 117.759 9.33119C115.242 7.68632 112.405 6.52824 109.712 5.14983C109.352 4.96535 109.012 4.74501 108.683 4.55029L108.611 4.56054Z" fill="black"/>
<path d="M62.5656 47.9268L63.5952 47.5169C65.6545 46.6868 67.7137 45.8566 69.8039 45.0624C71.8941 44.2681 74.1181 43.4687 76.2854 42.6899C77.7166 42.408 79.1941 41.665 80.5687 41.1526L85.1145 39.518L89.6655 37.8885C90.9474 37.4273 92.5073 37.2428 93.6296 36.4588C93.6676 36.4386 93.7009 36.4106 93.7274 36.3768C93.8591 36.2216 94.0222 36.0959 94.2062 36.0079C94.1529 35.9202 94.0819 35.8444 93.9977 35.7853C93.9136 35.7262 93.818 35.6851 93.7171 35.6645C92.9896 35.4521 92.2505 35.281 91.5034 35.1521L89.4441 34.7934C88.5282 34.6426 87.6223 34.4372 86.7311 34.1785C86.103 33.9838 84.157 33.3996 84.3938 32.5029C84.4298 32.3748 84.4762 32.2518 84.5225 32.1288C84.7747 31.4781 90.4738 33.456 91.3078 33.5021C91.6039 33.509 91.8994 33.5313 92.1932 33.5687C93.0581 33.7225 93.8252 34.3476 94.7055 34.3066C94.9456 34.2692 95.1885 34.252 95.4314 34.2554C96.9759 34.4245 94.9166 38.5546 94.5614 39.231C92.6669 42.818 90.7929 46.4459 88.8212 49.9919C87.7916 51.811 86.7619 53.6147 85.7066 55.3979C85.1351 56.3459 84.8571 57.6065 83.8635 58.2265C83.7615 58.3033 83.6362 58.3431 83.5083 58.3392C83.1067 58.3034 83.1376 57.7038 83.2921 57.3144C86.0463 50.6529 90.6745 45.0163 93.331 38.3548C93.345 38.3272 93.3554 38.2979 93.3619 38.2677C93.3619 38.16 93.3979 37.9961 93.3619 37.9653C93.2554 37.9169 93.1356 37.9061 93.0221 37.9346C92.9234 37.957 92.8348 38.011 92.7698 38.0883C91.5755 39.4513 89.0168 39.8869 87.354 40.3788L84.2651 41.2807C84.0952 41.3319 83.9253 41.3832 83.7503 41.4242L83.2354 41.542C82.7567 41.665 82.2933 41.8341 81.8249 41.9981L73.1708 45.1187C70.8448 45.9065 68.5656 46.8252 66.3443 47.8705C65.0521 48.5059 63.796 49.2284 62.4729 49.7869C62.0175 50.0044 61.525 50.1348 61.0211 50.1712C59.9349 50.1712 59.4046 49.4948 60.4445 48.8902C61.1274 48.5187 61.8362 48.1968 62.5656 47.9268Z" fill="black"/>
</g>
<defs>
<clipPath id="clip0">
<rect width="172" height="99" fill="white"/>
</clipPath>
</defs>
</svg>
